<?xml version="1.0" encoding="UTF-8"?>
<svg width="1593px" height="1145px" viewBox="0 0 1593 1145" version="1.1" xmlns="http://www.w3.org/2000/svg" xmlns:xlink="http://www.w3.org/1999/xlink">
    <title>amex-svgrepo-com</title>
    <g id="Page-2" stroke="none" stroke-width="1" fill="none" fill-rule="evenodd">
        <g id="amex-svgrepo-com" fill-rule="nonzero">
            <path d="M99.561135,0 L1493.43886,0 C1548.39814,0 1593,44.6012426 1593,99.6088959 L1593,1045.44024 C1593,1100.39876 1548.39814,1145 1493.43886,1145 L99.561135,1145 C44.5527207,1145 0,1100.39876 0,1045.4457 L0,99.6088959 C0,44.6012426 44.6018597,0 99.561135,0 Z" id="Path" fill="#26A6D1"></path>
            <path d="M256.324214,398 L99,746.551737 L287.339123,746.551737 L310.68767,690.978071 L364.057338,690.978071 L387.405885,746.551737 L594.714337,746.551737 L594.714337,704.136227 L613.186773,746.551737 L720.423002,746.551737 L738.895438,703.239701 L738.895438,746.551737 L1170.04089,746.551737 L1222.46591,692.421259 L1271.55465,746.551737 L1493,747 L1335.17889,573.248927 L1493,398 L1274.98922,398 L1223.95659,451.130087 L1176.41314,398 L707.383636,398 L667.107938,487.964177 L625.887596,398 L437.94162,398 L437.94162,438.972322 L417.033859,398 C417.033859,398 256.324214,398 256.324214,398 Z M292.766732,447.494784 L384.571952,447.494784 L488.925106,683.849597 L488.925106,447.494784 L589.494222,447.494784 L670.094761,616.960026 L744.377651,447.494784 L844.444413,447.494784 L844.444413,697.603615 L783.555814,697.603615 L783.05892,501.619796 L694.289666,697.603615 L639.822464,697.603615 L550.556315,501.619796 L550.556315,697.603615 L425.295401,697.603615 L401.548246,641.532486 L273.251365,641.532486 L249.553354,697.554416 L182.439932,697.554416 C182.439932,697.554416 292.766732,447.494784 292.766732,447.494784 Z M900.15112,447.494784 L1147.73527,447.494784 L1223.4597,529.384762 L1301.62491,447.494784 L1377.34934,447.494784 L1262.29386,573.199727 L1377.34934,697.456016 L1298.19034,697.456016 L1222.46591,614.614846 L1143.90209,697.456016 L900.15112,697.456016 L900.15112,447.494784 L900.15112,447.494784 Z M337.427108,489.811895 L295.158374,589.697989 L379.646698,589.697989 L337.427108,489.811895 Z M961.290896,499.280082 L961.290896,544.937298 L1096.35864,544.937298 L1096.35864,595.826071 L961.290896,595.826071 L961.290896,645.670718 L1112.78889,645.670718 L1183.184,572.254002 L1115.77572,499.236349 L961.290896,499.236349 L961.290896,499.280082 Z" id="Shape" fill="#FFFFFF"></path>
        </g>
    </g>
</svg>