<svg width="24" height="24" viewBox="0 0 24 24" xmlns="http://www.w3.org/2000/svg">
    <path d="M9.25 12.75c1.852 0 3.375-1.5 3.375-3.375A3.391 3.391 0 0 0 9.25 6a3.376 3.376 0 0 0-3.375 3.375c0 1.875 1.5 3.375 3.375 3.375zm0-5.625c1.219 0 2.25 1.031 2.25 2.25a2.266 2.266 0 0 1-2.25 2.25A2.25 2.25 0 0 1 7 9.375a2.266 2.266 0 0 1 2.25-2.25zm2.086 6c-.68 0-.984.375-2.086.375-1.125 0-1.43-.375-2.11-.375-1.734 0-3.14 1.43-3.14 3.164v.586A1.11 1.11 0 0 0 5.125 18h8.25c.61 0 1.125-.492 1.125-1.125v-.586a3.181 3.181 0 0 0-3.164-3.164zm2.039 3.75h-8.25v-.586c0-1.125.89-2.039 2.016-2.039.351 0 .89.375 2.109.375 1.195 0 1.734-.375 2.086-.375a2.04 2.04 0 0 1 2.039 2.04v.585zm5.25-5.813h-1.688V9.376A.403.403 0 0 0 16.563 9h-.375a.385.385 0 0 0-.375.375v1.688h-1.687a.385.385 0 0 0-.375.374v.376c0 .21.164.374.375.374h1.688v1.688c0 .21.164.375.374.375h.375a.385.385 0 0 0 .375-.375v-1.688h1.688a.385.385 0 0 0 .375-.374v-.376a.403.403 0 0 0-.375-.374z" fill="#1E2B3B"/>
</svg>
