<svg width="46" height="46" viewBox="0 0 46 46" fill="none" xmlns="http://www.w3.org/2000/svg">
    <path d="M3 23C3 11.954 11.954 3 23 3s20 8.954 20 20-8.954 20-20 20S3 34.046 3 23z" fill="#FEF0C7"/>
    <path d="M23 19.667V23m0 3.333h.008m-1.433-10.95-7.058 11.784a1.666 1.666 0 0 0 1.425 2.5h14.116a1.667 1.667 0 0 0 1.425-2.5l-7.058-11.784a1.667 1.667 0 0 0-2.85 0z" stroke="#DC6803" stroke-width="1.667" stroke-linecap="round" stroke-linejoin="round"/>
    <path d="M23 40c-9.389 0-17-7.611-17-17H0c0 12.703 10.297 23 23 23v-6zm17-17c0 9.389-7.611 17-17 17v6c12.703 0 23-10.297 23-23h-6zM23 6c9.389 0 17 7.611 17 17h6C46 10.297 35.703 0 23 0v6zm0-6C10.297 0 0 10.297 0 23h6c0-9.389 7.611-17 17-17V0z" fill="#FFFAEB"/>
</svg>
