<svg width="25" height="29" viewBox="0 0 25 29" fill="none" xmlns="http://www.w3.org/2000/svg">
    <path d="M20.15 15.256c-.012-2.365 1.051-4.15 3.202-5.466-1.203-1.733-3.022-2.687-5.423-2.874-2.273-.18-4.758 1.334-5.667 1.334-.96 0-3.163-1.27-4.892-1.27C3.797 7.038 0 9.848 0 15.565 0 17.255.307 19 .922 20.8c.82 2.366 3.778 8.166 6.864 8.07 1.614-.04 2.754-1.154 4.854-1.154 2.036 0 3.093 1.154 4.892 1.154 3.112-.046 5.788-5.318 6.57-7.69-4.175-1.978-3.951-5.8-3.951-5.923zM16.528 4.673C18.275 2.585 18.115.683 18.063 0c-1.543.09-3.33 1.057-4.347 2.25-1.12 1.276-1.78 2.855-1.64 4.634 1.672.128 3.196-.735 4.45-2.211z" fill="#1A1824"/>
</svg>
