<svg width="24" height="24" viewBox="0 0 24 24" fill="none" xmlns="http://www.w3.org/2000/svg">
    <path d="M12.5 15.875a3.339 3.339 0 0 1-3.352-3.117l-2.46-1.899c-.329.422-.633.844-.868 1.313a.748.748 0 0 0-.07.328c0 .14.023.258.07.352C7.086 15.336 9.617 17 12.5 17c.61 0 1.219-.094 1.805-.234l-1.196-.938c-.21.047-.421.047-.609.047zm7.336 1.383-2.578-2.016a7.862 7.862 0 0 0 1.898-2.39.749.749 0 0 0 .07-.329.782.782 0 0 0-.07-.351C17.891 9.687 15.36 8 12.5 8c-1.266.023-2.438.328-3.469.89L6.055 6.595a.396.396 0 0 0-.235-.07c-.117 0-.234.046-.28.14l-.47.586a.396.396 0 0 0-.07.234c0 .118.047.211.14.282L18.923 18.43c.07.047.14.07.234.07a.378.378 0 0 0 .305-.14l.445-.587c.047-.07.07-.14.07-.234a.334.334 0 0 0-.14-.281zm-4.29-3.328-.937-.727c.094-.21.118-.445.141-.703v-.023a2.24 2.24 0 0 0-2.227-2.227c-.21 0-.421.047-.632.094.14.187.21.422.234.656-.023.094-.023.164-.047.234l-1.734-1.312a3.478 3.478 0 0 1 2.156-.797 3.391 3.391 0 0 1 3.375 3.375c0 .516-.14.984-.328 1.43z" fill="#1E2B3B"/>
</svg>
