<svg width="24" height="24" viewBox="0 0 24 24" fill="none" xmlns="http://www.w3.org/2000/svg">
    <path d="M18.927 12.172C17.612 9.687 14.983 8 12.012 8a7.857 7.857 0 0 0-6.939 4.172A.725.725 0 0 0 5 12.5c0 .14.024.258.073.352A7.836 7.836 0 0 0 12.013 17c2.97 0 5.6-1.664 6.914-4.148a.725.725 0 0 0 .073-.329.757.757 0 0 0-.073-.351zm-6.915 3.703c-1.948 0-3.506-1.5-3.506-3.375 0-1.852 1.558-3.375 3.506-3.375 1.924 0 3.506 1.523 3.506 3.375v.023c0 1.852-1.582 3.375-3.506 3.375v-.023zm0-5.625c-.219.023-.438.047-.633.094.146.187.22.422.22.68 0 .609-.512 1.101-1.145 1.101-.268 0-.511-.07-.706-.21a2.414 2.414 0 0 0-.073.585c0 1.242 1.047 2.25 2.337 2.25 1.29 0 2.338-1.008 2.338-2.25s-1.047-2.227-2.338-2.227v-.023z" fill="#1E2B3B"/>
</svg>
