<svg width="66" height="66" viewBox="0 0 66 66" fill="none" xmlns="http://www.w3.org/2000/svg">
    <path d="M5 33C5 17.536 17.536 5 33 5s28 12.536 28 28-12.536 28-28 28S5 48.464 5 33z" fill="#FFD9CE"/>
    <path d="m37.084 27.75 4.083-4.084m2.333-2.333-2.333 2.333 2.333-2.333zM32.29 32.545a6.417 6.417 0 1 1-9.075 9.074 6.417 6.417 0 0 1 9.074-9.073v-.001zm0 0 4.795-4.795-4.795 4.795zm4.795-4.795 3.5 3.5 4.083-4.084-3.5-3.5-4.083 4.084z" stroke="#FF7B52" stroke-width="2.333" stroke-linecap="round" stroke-linejoin="round"/>
    <path d="M33 56c-12.703 0-23-10.297-23-23H0c0 18.225 14.775 33 33 33V56zm23-23c0 12.703-10.297 23-23 23v10c18.225 0 33-14.775 33-33H56zM33 10c12.703 0 23 10.297 23 23h10C66 14.775 51.225 0 33 0v10zm0-10C14.775 0 0 14.775 0 33h10c0-12.703 10.297-23 23-23V0z" fill="#FFECE6"/>
</svg>
