<svg width="298" height="408" viewBox="0 0 298 408" fill="none" xmlns="http://www.w3.org/2000/svg">
    <path stroke="#FF9B01" stroke-width="2" d="M203.24 12.724 207.5 1.02M229.864 12.178l6.228-10.787M256.656 11.645l8.006-9.541M283.65 10.744l9.542-8.007M17.709 12.276 8.167 4.269M44.461 12.931l-8.007-9.542M71.052 13.178 64.824 2.391M97.529 13.408l-4.26-11.704M123.937 13.63l-2.163-12.267M150.324 13.456V1M176.742 13.282l2.163-12.266M175.217 34.522l4.26-11.704M201.837 33.975l6.228-10.787M228.628 33.443l8.007-9.542M255.627 32.542l9.541-8.007M282.859 31.274l10.787-6.228M16.437 34.729l-8.006-9.542M43.029 34.975l-6.228-10.787M69.502 35.206l-4.26-11.704M95.91 35.427 93.747 23.16M122.297 35.253V22.797M148.718 35.079l2.163-12.266M147.189 56.32l4.26-11.704M173.814 55.773l6.228-10.787M200.605 55.24l8.006-9.542M227.603 54.338l9.542-8.006M254.836 53.071l10.787-6.228M282.33 52.218l11.704-4.26M15.001 56.773 8.773 45.986M41.478 57.004 37.218 45.3M67.886 57.224l-2.163-12.266M94.273 57.051V44.595M120.691 56.877l2.163-12.266M119.166 78.117l4.26-11.705M145.786 77.57l6.228-10.787M172.578 77.038l8.006-9.542M199.576 76.136l9.542-8.006M226.812 74.868l10.787-6.227M254.306 74.016l11.705-4.26M282.08 72.803l12.267-2.163M13.451 78.801l-4.26-11.704M39.859 79.022l-2.163-12.266M66.246 78.849V66.393M92.668 78.675l2.162-12.266M91.138 99.915l4.26-11.705M117.763 99.367l6.228-10.787M144.554 98.836l8.007-9.542M171.553 97.933l9.541-8.006M198.785 96.666l10.787-6.228M226.279 95.813l11.705-4.26M254.053 94.601l12.266-2.163M11.835 100.819 9.673 88.553M38.223 100.646V88.19M64.64 100.472l2.163-12.267M297.68 95.418h-12.456M63.115 121.712l4.26-11.705M89.736 121.165l6.227-10.787M116.527 120.633l8.006-9.542M143.525 119.731l9.542-8.006M170.762 118.463l10.787-6.228M198.256 117.611l11.704-4.26M226.029 116.398l12.267-2.163M10.195 122.443v-12.455M36.617 122.27l2.163-12.267M269.652 117.216h-12.455M297.365 118.368l-12.266-2.163M35.088 143.51l4.26-11.705M61.712 142.962l6.228-10.787M88.504 142.43l8.006-9.541M115.502 141.529l9.541-8.006M142.734 140.261l10.787-6.228M170.228 139.409l11.705-4.26M198.002 138.196l12.267-2.163M8.589 144.068l2.163-12.267M241.629 139.013h-12.456M269.338 140.165l-12.266-2.162M296.775 141.288l-11.704-4.26M7.064 165.307l4.26-11.704M33.685 164.76l6.228-10.787M60.476 164.227l8.007-9.541M87.474 163.326l9.542-8.007M114.711 162.058l10.787-6.228M142.205 161.206l11.704-4.26M169.979 159.994l12.266-2.163M295.93 163.79l-10.787-6.228M213.605 160.811H201.15M241.315 161.963l-12.267-2.163M268.748 163.085l-11.705-4.26M5.661 186.558l6.228-10.787M32.453 186.025l8.006-9.541M59.451 185.124l9.542-8.007M86.684 183.856l10.787-6.228M114.178 183.004l11.704-4.26M141.951 181.791l12.267-2.163M267.902 185.588l-10.787-6.228M294.853 186.656l-9.541-8.007M185.578 182.607h-12.456M213.287 183.76l-12.266-2.163M240.724 184.883l-11.704-4.26M4.425 207.823l8.007-9.542M31.424 206.92l9.541-8.006M58.66 205.654l10.787-6.228M86.154 204.802l11.705-4.261M113.928 203.588l12.266-2.162M239.879 207.386l-10.787-6.228M266.826 208.453l-9.542-8.007M293.578 209.109l-8.007-9.542M157.555 204.405h-12.456M185.264 205.558l-12.267-2.163M212.701 206.681l-11.705-4.26M3.4 228.718l9.542-8.006M30.633 227.45l10.787-6.227M58.127 226.598l11.704-4.26M85.901 225.385l12.266-2.163M211.852 229.182l-10.787-6.227M238.803 230.25l-9.542-8.006M265.55 230.905l-8.006-9.541M292.146 231.152l-6.228-10.787M129.527 226.203h-12.455M157.237 227.355l-12.267-2.163M184.674 228.478l-11.705-4.26M2.609 249.248l10.787-6.228M30.103 248.396l11.705-4.26M57.877 247.183l12.267-2.163M183.828 250.98l-10.787-6.228M210.775 252.048l-9.541-8.006M237.527 252.703l-8.006-9.541M264.118 252.949l-6.227-10.787M290.595 253.181l-4.26-11.705M101.504 248H89.048M129.213 249.153l-12.266-2.163M156.65 250.276l-11.704-4.26M2.076 270.193l11.704-4.26M29.85 268.981l12.266-2.163M155.801 272.778l-10.787-6.228M182.752 273.845l-9.542-8.006M209.503 274.5l-8.006-9.541M236.095 274.747l-6.228-10.787M262.568 274.979l-4.26-11.705M288.976 275.199l-2.163-12.266M73.477 269.798H61.021M101.186 270.951l-12.267-2.163M128.623 272.073l-11.705-4.261M1.826 290.778l12.267-2.163M127.777 294.575l-10.787-6.228M154.724 295.643l-9.541-8.006M181.476 296.298l-8.006-9.542M208.068 296.545l-6.228-10.787M234.545 296.776l-4.26-11.705M260.953 296.997l-2.163-12.267M287.34 296.823v-12.455M45.453 291.595H32.997M73.162 292.748l-12.266-2.163M100.599 293.87l-11.704-4.26M99.75 316.373l-10.787-6.228M126.701 317.44l-9.542-8.006M153.453 318.096l-8.007-9.542M180.044 318.342l-6.228-10.787M206.517 318.573l-4.26-11.704M232.925 318.794l-2.163-12.267M259.312 318.62v-12.456M285.734 318.446l2.163-12.266M17.426 313.393H4.97M45.135 314.545l-12.267-2.163M72.572 315.668l-11.705-4.26M284.205 339.686l4.26-11.704M71.727 338.17l-10.787-6.228M98.674 339.238l-9.542-8.007M125.425 339.893l-8.006-9.542M152.017 340.14l-6.228-10.787M178.494 340.37l-4.26-11.704M204.902 340.592l-2.163-12.267M231.289 340.418v-12.456M257.707 340.244l2.163-12.266M17.111 336.342l-12.266-2.163M44.549 337.465l-11.705-4.26M256.181 361.484l4.26-11.704M282.802 360.937l6.228-10.787M43.699 359.968l-10.787-6.228M70.65 361.036l-9.541-8.007M97.402 361.691l-8.006-9.542M123.993 361.937l-6.227-10.787M150.467 362.168l-4.261-11.704M176.875 362.389l-2.163-12.266M203.262 362.216V349.76M229.683 362.042l2.163-12.266M16.521 359.263l-11.704-4.26M228.154 383.282l4.26-11.705M254.779 382.734l6.227-10.787M281.57 382.202l8.006-9.542M15.676 381.765l-10.787-6.227M42.623 382.832l-9.542-8.006M69.375 383.488l-8.007-9.542M95.966 383.734l-6.228-10.787M122.443 383.966l-4.26-11.704M148.851 384.186l-2.163-12.266M175.238 384.013v-12.456M201.656 383.839l2.163-12.266M200.131 405.079l4.26-11.705M226.751 404.532l6.228-10.787M253.543 404l8.006-9.542M280.541 403.098l9.541-8.006M14.599 404.63l-9.541-8.006M41.351 405.285l-8.006-9.541M67.943 405.532l-6.228-10.787M94.416 405.763l-4.26-11.705M120.824 405.984l-2.163-12.266M147.211 405.811v-12.456M173.632 405.637l2.163-12.267"/>
</svg>
