<svg  width="22" height="22" viewBox="0 0 22 22" xmlns="http://www.w3.org/2000/svg">
    <path fill='white' fill-rule="evenodd" clip-rule="evenodd" d="M10.083 8.25a.917.917 0 0 1 1.834 0v3.667a.917.917 0 0 1-1.834 0V8.25zm0 6.417a.917.917 0 1 1 1.834 0 .917.917 0 0 1-1.834 0zm9.043 2.157c-.21.37-.619.593-1.094.593H3.967c-.475 0-.884-.222-1.093-.593a.89.89 0 0 1 .016-.933L9.922 4.233c.428-.71 1.728-.71 2.156 0l7.032 11.658a.892.892 0 0 1 .016.933m1.555-1.88L13.648 3.285c-.55-.909-1.54-1.452-2.648-1.452-1.11 0-2.1.543-2.648 1.452L1.32 14.945a2.726 2.726 0 0 0-.042 2.78c.53.941 1.562 1.525 2.69 1.525h14.064c1.129 0 2.16-.584 2.69-1.525a2.726 2.726 0 0 0-.041-2.78" fill="#D0021B"/>
    <mask id="4nw0ocu3fa" style="mask-type:alpha" maskUnits="userSpaceOnUse" x="0" y="1" width="22" height="22">
        <path fill-rule="evenodd" clip-rule="evenodd" d="M10.083 8.25a.917.917 0 0 1 1.834 0v3.667a.917.917 0 0 1-1.834 0V8.25zm0 6.417a.917.917 0 1 1 1.834 0 .917.917 0 0 1-1.834 0zm9.043 2.157c-.21.37-.619.593-1.094.593H3.967c-.475 0-.884-.222-1.093-.593a.89.89 0 0 1 .016-.933L9.922 4.233c.428-.71 1.728-.71 2.156 0l7.032 11.658a.892.892 0 0 1 .016.933m1.555-1.88L13.648 3.285c-.55-.909-1.54-1.452-2.648-1.452-1.11 0-2.1.543-2.648 1.452L1.32 14.945a2.726 2.726 0 0 0-.042 2.78c.53.941 1.562 1.525 2.69 1.525h14.064c1.129 0 2.16-.584 2.69-1.525a2.726 2.726 0 0 0-.041-2.78" fill="#fff"/>
    </mask>
</svg>
