<svg width="93" height="32" viewBox="0 0 93 32" fill="none" xmlns="http://www.w3.org/2000/svg">
    <path fill-rule="evenodd" clip-rule="evenodd" d="M10.024 7.473c1.522 0 2.866.37 4.031 1.108 1.166.739 2.075 1.788 2.73 3.146.653 1.359.98 2.944.98 4.756 0 1.811-.327 3.414-.98 4.809-.655 1.394-1.57 2.473-2.748 3.235-1.177.763-2.514 1.145-4.013 1.145-1.26 0-2.384-.275-3.37-.823a5.592 5.592 0 0 1-2.266-2.288v.894c0 .643-.202 1.156-.607 1.537-.404.382-.939.572-1.605.572s-1.195-.19-1.587-.572C.196 24.611 0 24.098 0 23.455V2.074C0 1.454.208.954.624.572 1.04.191 1.582 0 2.247 0c.666 0 1.201.179 1.606.536.404.358.606.846.606 1.466v8.438a5.339 5.339 0 0 1 2.248-2.199c.975-.512 2.08-.768 3.317-.768zm-1.177 14.73c1.403 0 2.497-.5 3.282-1.501.785-1.001 1.177-2.408 1.177-4.22 0-1.787-.386-3.158-1.16-4.111-.772-.954-1.872-1.43-3.3-1.43-1.426 0-2.526.482-3.299 1.448-.773.965-1.16 2.354-1.16 4.165 0 1.812.387 3.206 1.16 4.183.773.978 1.873 1.466 3.3 1.466zm24.614-1.609a1.2 1.2 0 0 1 .982.465c.25.31.374.727.374 1.252 0 .738-.44 1.358-1.32 1.859-.808.453-1.724.816-2.747 1.09-1.022.274-1.997.412-2.925.412-2.806 0-5.03-.81-6.67-2.432-1.642-1.62-2.462-3.837-2.462-6.65 0-1.788.356-3.373 1.07-4.755.713-1.383 1.718-2.455 3.014-3.218 1.296-.763 2.765-1.144 4.406-1.144 1.57 0 2.937.345 4.102 1.036 1.166.692 2.07 1.669 2.712 2.932.642 1.264.963 2.753.963 4.47 0 1.025-.452 1.537-1.356 1.537H23.081c.142 1.645.606 2.854 1.39 3.63.786.774 1.927 1.161 3.425 1.161.761 0 1.433-.095 2.016-.286.583-.19 1.243-.453 1.98-.787.713-.38 1.237-.572 1.57-.572zM27.29 10.62c-1.213 0-2.182.381-2.907 1.144-.726.763-1.16 1.86-1.302 3.29h8.062c-.048-1.455-.405-2.557-1.07-3.308-.666-.75-1.594-1.126-2.783-1.126zm23.33 9.975a1.2 1.2 0 0 1 .981.465c.25.31.375.727.375 1.252 0 .738-.44 1.358-1.32 1.859-.809.453-1.724.816-2.747 1.09-1.023.274-1.998.412-2.925.412-2.806 0-5.03-.81-6.67-2.432-1.642-1.62-2.462-3.837-2.462-6.65 0-1.788.356-3.373 1.07-4.755.713-1.383 1.718-2.455 3.014-3.218 1.296-.763 2.765-1.144 4.406-1.144 1.57 0 2.937.345 4.102 1.036 1.166.692 2.07 1.669 2.711 2.932.643 1.264.964 2.753.964 4.47 0 1.025-.452 1.537-1.356 1.537H40.239c.143 1.645.607 2.854 1.392 3.63.785.774 1.926 1.161 3.424 1.161.761 0 1.433-.095 2.016-.286.583-.19 1.242-.453 1.98-.787.713-.38 1.236-.572 1.57-.572zM44.45 10.62c-1.213 0-2.182.381-2.907 1.144-.726.763-1.16 1.86-1.303 3.29h8.063c-.048-1.455-.405-2.557-1.07-3.308-.666-.75-1.594-1.126-2.783-1.126zm19.549-3.146c1.498 0 2.836.381 4.013 1.144 1.177.763 2.093 1.841 2.747 3.235.654 1.395.98 2.998.98 4.81 0 1.811-.326 3.396-.98 4.755-.654 1.358-1.564 2.407-2.73 3.146-1.164.74-2.508 1.109-4.03 1.109-1.237 0-2.343-.263-3.318-.787-.975-.524-1.724-1.251-2.247-2.181v7.294c0 .62-.202 1.108-.607 1.466-.404.357-.94.536-1.605.536-.666 0-1.207-.19-1.623-.572-.416-.381-.624-.882-.624-1.502V9.654c0-.644.196-1.156.588-1.538.393-.381.922-.572 1.588-.572s1.2.19 1.605.572c.404.382.606.894.606 1.538v.893a5.48 5.48 0 0 1 2.266-2.27c.987-.536 2.11-.804 3.37-.804zm-1.177 14.73c1.403 0 2.497-.482 3.282-1.448.784-.965 1.177-2.33 1.177-4.093 0-1.812-.393-3.218-1.177-4.22-.785-1-1.88-1.501-3.282-1.501-1.427 0-2.527.488-3.3 1.466-.773.977-1.16 2.371-1.16 4.183 0 1.788.387 3.17 1.16 4.147.773.978 1.873 1.466 3.3 1.466zM85.62 8.76s.611.942 1.466 1.328c.927.418 2.104.283 2.104.283l-9.675 20.413C79.11 31.594 78.48 32 77.625 32a2.195 2.195 0 0 1-1.445-.518c-.416-.346-.624-.781-.624-1.305 0-.263.071-.56.214-.894l2.426-5.113-6.635-13.837a1.819 1.819 0 0 1-.179-.822c0-.549.232-1.013.696-1.395a2.43 2.43 0 0 1 1.587-.572c.405 0 .773.101 1.106.304.333.203.595.518.785.948l4.994 11.048L85.62 8.76z" fill="#fff"/>
    <path fill-rule="evenodd" clip-rule="evenodd" d="M85.44 5.87c-.06-1.669 1.271-3.7 3.736-3.724 2.06-.019 3.702 1.687 3.692 3.766a3.703 3.703 0 0 1-3.737 3.716c-2.06-.005-3.7-1.671-3.692-3.758z" fill="#FF9B01"/>
</svg>
