<svg width="162" height="131" viewBox="0 0 162 131" fill="none" xmlns="http://www.w3.org/2000/svg">
    <path opacity=".1" fill-rule="evenodd" clip-rule="evenodd" d="M94.012 39.889c-10.374-.36-20.253-3.7-29.688-7.351-9.435-3.651-18.779-7.7-28.9-9.636-6.512-1.245-13.96-1.421-19.207 2.06-5.05 3.356-6.682 9.132-7.559 14.5-.66 4.036-1.048 8.285.76 12.063 1.257 2.624 3.485 4.829 5.026 7.343 5.365 8.744 1.572 19.527-4.24 28.065-2.725 4.006-5.89 7.83-7.995 12.09-2.105 4.26-3.077 9.148-1.236 13.5 1.824 4.314 6.172 7.549 10.883 9.826 9.567 4.626 20.837 5.949 31.834 6.7 24.336 1.66 48.8.941 73.2.222 9.03-.267 18.1-.537 26.982-1.929 4.933-.773 10.026-2 13.608-4.962a11.338 11.338 0 0 0 2.625-14.842c-5.11-7.908-19.234-9.872-22.81-18.36-1.965-4.671.053-9.874 2.911-14.208 6.129-9.294 16.4-17.448 16.942-28.071.372-7.3-4.566-14.6-12.2-18.057-8-3.618-19.1-3.164-25 2.827-6.092 6.164-16.777 8.54-25.936 8.22z" fill="#FF9B01"/>
    <path d="M80.984 50c8.97 0 16.11-7.275 16.11-16.25S89.822 17.5 80.984 17.5c-8.97 0-16.109 7.275-16.109 16.25-.14 8.969 7.14 16.25 16.11 16.25zm7.813 5H73.203C60.937 55 51 64.328 51 75.828 51 78.141 52.984 80 55.438 80h51.125c2.453 0 4.437-1.86 4.437-4.172C111 64.328 101.062 55 88.797 55zM111 25c6.903 0 12.5-5.597 12.5-12.5S117.906 0 111 0c-6.903 0-12.5 5.597-12.5 12.5S104.094 25 111 25zm-51.266 8.75c0-.851.154-1.66.252-2.486C58.28 30.328 56.406 30 54.422 30h-9.66C37.163 30 31 36.531 31 44.578c0 1.61 1.232 2.922 2.753 2.922h31.172c-3.19-3.719-5.19-8.484-5.19-13.75zM51 25c6.903 0 12.5-5.597 12.5-12.5S57.906 0 51 0c-6.903 0-12.5 5.597-12.5 12.5S44.097 25 51 25zm66.234 5h-9.662c-2 0-3.888.474-5.603 1.288.094.821.25 1.618.25 2.462 0 5.267-1.997 10.033-5.181 13.75h31.203c1.525 0 2.759-1.313 2.759-2.922C131 36.531 124.844 30 117.234 30z" fill="#FF9B01"/>
</svg>
