<svg width="162" height="120" viewBox="0 0 162 120" fill="none" xmlns="http://www.w3.org/2000/svg">
    <path opacity=".1" fill-rule="evenodd" clip-rule="evenodd" d="M94.012 28.889c-10.374-.36-20.253-3.7-29.688-7.351-9.435-3.651-18.779-7.7-28.9-9.636-6.512-1.245-13.96-1.421-19.207 2.06-5.05 3.356-6.682 9.132-7.559 14.5-.66 4.036-1.048 8.285.76 12.063 1.257 2.624 3.485 4.829 5.026 7.343 5.365 8.744 1.572 19.527-4.24 28.065-2.725 4.006-5.89 7.83-7.995 12.09-2.105 4.26-3.077 9.148-1.236 13.5 1.824 4.314 6.172 7.549 10.883 9.826 9.567 4.626 20.837 5.949 31.834 6.7 24.336 1.66 48.8.941 73.2.222 9.03-.267 18.1-.537 26.982-1.929 4.933-.773 10.026-2 13.608-4.962a11.338 11.338 0 0 0 2.625-14.842c-5.11-7.908-19.234-9.872-22.81-18.36-1.965-4.671.053-9.874 2.911-14.208 6.129-9.294 16.4-17.448 16.942-28.071.372-7.3-4.566-14.6-12.2-18.057-8-3.618-19.1-3.164-25 2.827-6.092 6.164-16.777 8.54-25.936 8.22z" fill="#FF9B01"/>
    <path d="M85.56 5v3c11.281 2.317 19.781 12.406 19.781 24.5v2.938c0 7.359 2.673 14.437 7.494 19.937l1.144 1.297a5.035 5.035 0 0 1 .819 5.375c-.804 1.797-2.565 2.953-4.512 2.953H50.945a4.943 4.943 0 0 1-4.511-2.953 5.055 5.055 0 0 1 .815-5.375l1.146-1.297a30.203 30.203 0 0 0 7.495-19.938V32.5c0-12.094 8.36-22.183 19.78-24.5V5c0-2.76 2.21-5 4.945-5 2.736 0 4.945 2.24 4.945 5zm-4.945 75a9.839 9.839 0 0 1-7-2.922c-1.854-1.875-2.89-4.562-2.89-7.078h19.78c0 2.516-1.035 5.203-2.89 7.078-1.854 1.875-4.512 2.922-7 2.922z" fill="#FF9B01"/>
</svg>
