<svg width="24" height="24" viewBox="0 0 24 24" fill="none" xmlns="http://www.w3.org/2000/svg">
    <path d="m16.313 6.805.093 1.945A5.732 5.732 0 0 0 12 6.687h-.023a5.79 5.79 0 0 0-5.696 4.735v.07c0 .14.117.258.282.258H7.71c.117 0 .234-.07.258-.21a4.124 4.124 0 0 1 4.008-3.142c1.43 0 2.695.704 3.421 1.805l-2.367-.117h-.023c-.14 0-.281.14-.281.281v1.125c0 .14.14.281.28.281h4.712c.14 0 .281-.14.281-.28V6.78c0-.14-.14-.281-.281-.281h-1.125c-.14.023-.282.14-.282.281v.024zm-4.336 9.82a4.104 4.104 0 0 1-3.422-1.805l2.39.117h.024c.14 0 .281-.14.281-.28V13.53c0-.14-.14-.281-.281-.281H6.28a.285.285 0 0 0-.281.281v4.688a.27.27 0 0 0 .281.281h1.102c.14 0 .281-.117.281-.281l-.094-1.946a5.732 5.732 0 0 0 4.407 2.063v-.023a5.813 5.813 0 0 0 5.718-4.711v-.07a.285.285 0 0 0-.28-.282h-1.15c-.14.023-.234.094-.28.234-.422 1.805-2.063 3.141-4.008 3.141z" fill="#1E2B3B"/>
</svg>
