<svg width="24" height="24" viewBox="0 0 24 24" fill="none" xmlns="http://www.w3.org/2000/svg">
    <path d="M6.75 17.375A1.11 1.11 0 0 0 7.875 18.5h6.75c.61 0 1.125-.492 1.125-1.125V9.5h-9v7.875zm6.375-6c0-.188.164-.375.375-.375.188 0 .375.188.375.375v5.25c0 .21-.188.375-.375.375a.37.37 0 0 1-.375-.375v-5.25zm-2.25 0c0-.188.164-.375.375-.375.188 0 .375.188.375.375v5.25c0 .21-.188.375-.375.375a.37.37 0 0 1-.375-.375v-5.25zm-2.25 0c0-.188.164-.375.375-.375.188 0 .375.188.375.375v5.25c0 .21-.188.375-.375.375a.37.37 0 0 1-.375-.375v-5.25zm7.5-4.125h-2.813l-.234-.422a.569.569 0 0 0-.492-.328H9.89a.57.57 0 0 0-.493.328l-.21.422H6.374A.385.385 0 0 0 6 7.625v.75c0 .21.164.375.375.375h9.75a.385.385 0 0 0 .375-.375v-.75a.403.403 0 0 0-.375-.375z" fill="#1E2B3B"/>
</svg>
