<svg width="33" height="33" viewBox="0 0 33 33" fill="none" xmlns="http://www.w3.org/2000/svg">
    <path fill-rule="evenodd" clip-rule="evenodd" d="M5.625 4h22.75C29.797 4 31 5.203 31 6.625v19.25a2.626 2.626 0 0 1-2.625 2.625H5.625A2.591 2.591 0 0 1 3 25.875V6.625A2.626 2.626 0 0 1 5.625 4zm.656 2.625a.665.665 0 0 0-.656.656v1.313c0 .383.273.656.656.656H8.47a.665.665 0 0 0 .656-.656V7.28c0-.328-.328-.656-.656-.656H6.28zM27.72 9.25a.665.665 0 0 0 .656-.656V7.28c0-.328-.328-.656-.656-.656H12.406a.665.665 0 0 0-.656.656v1.313c0 .383.273.656.656.656H27.72z" fill="#1A1824"/>
</svg>
